<?xml version="1.0" encoding="UTF-8"?>
<svg xmlns="http://www.w3.org/2000/svg" version="1.1" viewBox="0 0 1920 1080">
  <defs>
    <style>
      .cls-1 {
        fill: #213456;
      }
    </style>
  </defs>
  <!-- Generator: Adobe Illustrator 28.7.1, SVG Export Plug-In . SVG Version: 1.2.0 Build 142)  -->
  <g>
    <g id="katman_1">
      <g>
        <path class="cls-1" d="M735.34,677.3c-98.3,2.77-186.47-82.64-186.71-182.58-.24-99.84,86.16-184.07,185.46-184.21,106.62-.15,186.66,88.23,187.4,182.27.76,96.85-82.17,186.41-186.15,184.52ZM688.4,392.05c1.09,6.79,2.43,13.17,3.07,19.61.58,5.79,3.02,6.11,6.93,3.01,16.49-13.07,32.9-26.26,49.38-39.35,3.41-2.71,3.09-4.34-.99-5.88-19.88-7.53-39.71-15.19-59.56-22.8-3.53-1.35-5.72-1.21-4.71,3.64.84,4.02,1.23,8.15,1.75,12.23,1.47,11.57,1.53,11.72-9.15,17.04-28.68,14.28-50.28,35.97-61.79,65.6-18.52,47.72-13.25,93.09,19.19,133.94,18.6,23.42,42.97,37.85,71.93,44.75,1.8.43,3.65,1.27,4.61-1.64,2.64-7.94-.65-14.37-8.65-16.78-35.23-10.6-60.1-33.29-72.96-67.33-16.72-44.23-8.65-84.91,23.19-120.09,10.23-11.3,22.46-20.53,37.76-25.94ZM852.11,493.42c-.04,27.13-7.22,48.92-21.08,68.86-10.5,15.11-24.21,26.03-40.15,34.63-3.96,2.14-6.6,2.24-7.62-2.98-1.02-5.22-2.34-10.37-3.48-15.57-.95-4.32-2.25-6.27-6.38-2.15-14.37,14.37-28.99,28.49-43.41,42.8-5.08,5.05-4.69,5.86,2.57,7.84,17.74,4.82,35.47,9.65,53.19,14.55,10.94,3.02,10.94,3.08,8.16-8.08-1.35-5.4-4.88-11.38-3.58-16.03,1.48-5.28,9.34-5.68,14.19-8.6,29.01-17.48,49.28-42.34,58.45-74.84,14.08-49.87,2.25-93.93-33.91-131.01-16.77-17.19-37.83-27.36-60.83-33.64-1.99-.54-4.22-1.86-5.91.6-3.28,4.78.42,15.31,6.1,16.86,13.95,3.82,26.88,10.21,38.15,18.84,29.65,22.73,44.69,53.33,45.54,87.88ZM679.8,491.56c0,5.33-.14,10.66.03,15.99.31,9.67,5.85,16.23,15.32,18.38,10.29,2.34,20.74.67,31.1,1.05,11.25.41,17.56,5.08,19.81,16.14.82,4.01,2.3,4.69,5.83,3.63,7.49-2.24,12.57-7.13,15.36-14.21,1.36-3.43,3.04-5.65,6.82-6.48,9.34-2.04,14-8.52,14.38-17.62.46-11.12.61-22.3-.1-33.4-.71-11.02-8.73-17.9-19.84-18.15-8.71-.19-17.44-.05-26.15-.05-14.05,0-28.1-.22-42.14.12-12.32.3-20.25,8.66-20.42,20.79-.07,4.6-.01,9.21,0,13.81Z"/>
        <path class="cls-1" d="M1021.35,486.69c2.46.64,3.58-1,5.08-1.6,8.13-3.28,16.16,1.2,16.86,9.99.54,6.74.03,13.56.24,20.34.1,3.28-1.28,4.02-4.28,4.08-3.39.07-4.81-.93-4.65-4.5.23-5.32,0-10.66.08-15.98.07-4.26-.77-8.29-5.81-8.31-4.79-.02-8.17,2.2-7.62,8.13.45,4.8-.06,9.69.15,14.52.16,3.86-.16,6.35-5.26,6.22-4.46-.11-5.8-1.38-5.71-5.82.25-13.32.25-26.65-.02-39.97-.09-4.41,1.7-5.15,5.55-5.18,3.97-.03,5.8.96,5.47,5.27-.33,4.29-.07,8.62-.07,12.82Z"/>
        <path class="cls-1" d="M1111.62,519.67c-12.26-.07-20.14-5.67-23.54-15.97-3.74-11.35.06-22.93,9.05-29.83,9.18-7.04,22.36-4.46,29.32-.12,1.51.94,2.93,1.95,1.41,3.98-1.63,2.17-3.12,4.27-6.51,2.8-4.81-2.09-9.42-4.45-15.16-1.98-7.65,3.29-11.73,13.88-8.27,23.38,3.07,8.44,11.55,12.09,20.06,8.61,1.11-.46,2.19-1.03,3.23-1.63,3.21-1.85,5.88-.75,7.29,2.17,1.68,3.48-1.74,4.75-3.9,5.61-4.45,1.79-9.06,3.48-12.98,2.98Z"/>
        <path class="cls-1" d="M1238.39,502.23c-.11,10.9-7.62,17.64-19.37,17.39-10.85-.23-16.87-6.9-16.61-18.4.23-10.34,7.5-18.45,17.25-17.37,11.16,1.23,19.11,5.8,18.72,18.38ZM1210.87,501.56c-.09,7.17,2.8,11.14,8.32,11.41,5.45.26,8.6-3.73,8.63-10.95.03-7.22-3.01-11.52-8.2-11.57-5.39-.05-8.66,4.1-8.75,11.11Z"/>
        <path class="cls-1" d="M1067.78,519.63c-9.21-.02-14.97-4.15-17.25-12.04-2.55-8.81-.32-15.93,6.43-20.56,6.78-4.65,13.53-4.21,20.06.87,3.18,2.48,4,5.89,4.96,9.38,1.09,3.97-.18,6.07-4.54,5.98-4.12-.09-8.25-.19-12.36.09-2.06.14-5.52-1.73-5.87,2.02-.31,3.34,1.59,6.08,5.16,6.97,3.37.84,6.78.82,9.86-.99,2.89-1.7,5.22-1.33,6.46,1.77,1.28,3.17-2,3.38-3.61,4.33-2.96,1.75-6.3,2.42-9.31,2.18ZM1065.94,498.39c2.46-1.77,7.22,2.23,7.58-2.82.28-3.86-3.28-5.56-7.14-5.44-3.43.11-6.67,1.42-6.83,5.08-.23,5.3,4.44,1.35,6.38,3.18Z"/>
        <path class="cls-1" d="M980.96,498.32c0-5.09-.28-10.2.09-15.27.34-4.61-1.47-6.15-5.82-5.61-1.67.21-3.4-.07-5.08.04-2.91.2-3.68-1.23-3.72-3.92-.05-3.04,1.46-3.61,4.03-3.6,10.42.06,20.85.06,31.27-.02,2.72-.02,3.88.87,3.87,3.75,0,2.84-1.12,3.58-3.83,3.85-11.01,1.07-11,1.18-11.02,12.57,0,8.24-.19,16.49.08,24.73.14,4.23-1.93,4.59-5.32,4.65-3.4.06-4.78-.86-4.61-4.46.26-5.56.07-11.15.07-16.73Z"/>
        <path class="cls-1" d="M1184.67,519.63c-6.98-.06-12.02-3.11-14.55-9.75-2.89-7.58-1.08-17.55,3.79-21.63,6.22-5.22,13.66-6.02,20.15-1.98,1.37.85,4.21,1.13,2.66,4.02-1.09,2.04-2.72,2.22-4.9,1.73-11.31-2.49-16.42,2.81-13.48,13.85,1.67,6.26,5.95,8.74,11.99,6.27,2.86-1.17,5.6-2.93,6.87,1.01,1.07,3.35-2.55,3.95-4.73,5.12-2.43,1.3-5.11,1.33-7.79,1.35Z"/>
        <path class="cls-1" d="M1135.18,494.28c0-7,.12-14-.06-21-.09-3.29.73-4.73,4.38-4.68,3.48.04,4.56,1.17,4.53,4.6-.16,14-.19,28,0,42,.05,3.76-1.6,4.28-4.78,4.31-3.23.03-4.16-1.16-4.09-4.23.16-7,.05-14,.05-21Z"/>
        <path class="cls-1" d="M1152.95,501.99c0-4.11.15-8.23-.05-12.33-.17-3.44.45-5.36,4.63-5.27,3.73.08,4.34,1.68,4.28,4.85-.14,8.46-.11,16.93,0,25.39.04,3.02-.21,4.92-4.17,4.93-4.1,0-4.89-1.72-4.71-5.23.21-4.1.05-8.22.05-12.33h-.03Z"/>
        <path class="cls-1" d="M1157.42,468.76c2.73.46,5.36,1.44,5.38,5.21.01,3.71-2.36,5.07-5.6,5.26-3.27.19-5.26-2.09-5.36-4.76-.11-2.95,1.58-5.56,5.58-5.71Z"/>
        <path class="cls-1" d="M735.73,499.1c-5.01.21-7.13-2.85-7.19-6.63-.07-3.75,2.66-6.16,6.63-6.07,3.89.09,6.55,2.22,6.34,6.26-.18,3.57-1.75,6.56-5.78,6.44Z"/>
        <path class="cls-1" d="M711.64,499.15c-5.09-.06-6.83-2.9-6.96-6.51-.15-3.99,2.4-6.26,6.35-6.27,4.35,0,6.8,2.41,6.41,6.83-.33,3.79-2.29,6.3-5.8,5.95Z"/>
        <path class="cls-1" d="M759.86,499.13c-4.96.03-6.96-2.7-7.18-6.25-.23-3.82,2.21-6.43,6.13-6.42,3.57,0,6.69,1.68,6.84,5.79.16,4.24-2.52,6.34-5.79,6.89Z"/>
      </g>
    </g>
  </g>
</svg>